#N canvas 0 22 1440 802 10;
#X declare -lib mrpeach;
#X obj 114 18 bng 15 250 50 0 empty empty empty 17 7 0 10 -262144 -1
-1;
#X obj 312 298 import mrpeach;
#X obj 140 299 mrpeach/slipdec 65536;
#X obj 210 119 loadbang;
#X obj 210 76 bng 15 250 50 0 empty empty empty 17 7 0 10 -262144 -1
-1;
#X msg 140 169 baud 9600;
#X msg 114 49 devices;
#X msg 76 49 ports;
#X obj 140 240 comport 3 9600;
#X msg 29 112 open 3;
#X msg 29 91 close 3;
#X obj 165 359 print;
#X obj 221 270 print;
#X obj 140 324 unpackOSC;
#X obj 76 18 bng 15 250 50 0 empty empty empty 17 7 0 10 -262144 -1
-1;
#X msg 210 169 open 3 \, pollintervall 1;
#X obj 140 391 OSCroute /analog;
#X floatatom 140 497 5 0 0 0 - - -;
#X floatatom 189 497 5 0 0 0 - - -;
#X obj 189 461 OSCroute /0;
#X obj 140 421 OSCroute /0 /midi;
#X text 488 238 öffnen der seriellen Schnittstelle \, um OSC Nachrichten
via SLIP Serial zu empfangen. (Entspricht dem "o.io.slipserial");
#X text 486 344 entpack der OSC Nachrichten bzw. Container;
#X text 487 388 OSC Nachrichten entsprechend weiterleiten und ihre
Werte ausgeben.;
#X text 488 298 decodieren von SLIP bytes zu OSC;
#X connect 0 0 6 0;
#X connect 2 0 13 0;
#X connect 3 0 15 0;
#X connect 3 0 5 0;
#X connect 4 0 3 0;
#X connect 5 0 8 0;
#X connect 6 0 8 0;
#X connect 7 0 8 0;
#X connect 8 0 2 0;
#X connect 8 1 12 0;
#X connect 9 0 8 0;
#X connect 10 0 8 0;
#X connect 13 0 11 0;
#X connect 13 0 16 0;
#X connect 14 0 7 0;
#X connect 15 0 8 0;
#X connect 16 0 20 0;
#X connect 19 0 18 0;
#X connect 20 0 17 0;
#X connect 20 1 19 0;
